<svg width="24" height="24" viewBox="0 0 24 24" fill="none" xmlns="http://www.w3.org/2000/svg">
<g opacity="0.6">
<path d="M12 3.59961C12.048 3.59961 19.5186 3.60096 21.3906 4.11328C22.4183 4.39016 23.2291 5.20063 23.5059 6.22852C24.02 8.10644 24 12.0215 24 12.0215C24 12.0505 23.9982 15.9229 23.5059 17.7939C23.229 18.8218 22.4186 19.6324 21.3906 19.9092C19.5153 20.4028 12.0222 20.4033 12 20.4033C12 20.4033 4.50707 20.4036 2.60938 19.8896C1.58142 19.6128 0.77105 18.8022 0.494141 17.7744C0.00285944 15.9271 1.71327e-05 12.0477 0 12.002C0 12.002 -5.89928e-05 8.10644 0.494141 6.22852C0.770927 5.20076 1.60134 4.37038 2.60938 4.09375C4.4875 3.59937 12 3.59961 12 3.59961ZM9.60742 15.5996L15.8545 12.002L9.60742 8.40332V15.5996Z" fill="white"/>
</g>
</svg>
